<svg width="2000" height="2000" viewBox="0 0 2000 2000" fill="none" xmlns="http://www.w3.org/2000/svg">
<rect width="2000" height="2000" rx="300" fill="black"/>
<path d="M1238.65 913.795C1213.08 929.322 1181.69 937.086 1144.46 937.086H957.437L1364.18 1448.49H1808.2L1611.78 1407.56L1346.3 1075.41C1365.4 1071.13 1378.52 1066.23 1406.7 1049.3C1413.75 1045.1 1420.31 1040.67 1426.25 1036.3C1450.08 1018.74 1464.74 1001.47 1470.67 994.083C1488.11 972.412 1501.52 947.959 1510.77 920.772C1520.11 893.662 1524.72 864.979 1524.72 834.717C1524.72 778.924 1512.1 733.218 1486.94 697.558C1461.79 661.856 1429.78 633.583 1391.04 612.623C1352.23 591.739 1309.18 577.129 1261.9 568.99C1214.61 560.892 1168.87 556.788 1124.7 556.788H659.249L818.371 759.167H1144.46C1186.35 759.167 1218.89 766.722 1242.18 781.832C1265.43 796.942 1277.02 819.607 1277.02 849.876C1277.01 877.014 1264.22 898.309 1238.65 913.795Z" fill="url(#paint0_linear_5_26)"/>
<path d="M962.62 341.518C1327.15 341.518 1623.72 638.092 1623.72 1002.62C1623.72 1103.16 1601.18 1198.56 1560.83 1283.96L1589.47 1319.83C1637.91 1224.51 1665.23 1116.7 1665.23 1002.62C1665.23 615.218 1350.01 300 962.606 300C762.182 300 581.098 384.358 452.989 519.437H511.899C630.059 409.103 788.555 341.518 962.62 341.518Z" fill="#FFAA6C"/>
<path d="M962.619 1663.73C598.092 1663.73 301.518 1367.15 301.518 1002.63C301.518 902.782 323.773 808.01 363.579 723.075L335.098 686.754C287.069 781.735 260 889.091 260 1002.63C260 1390.08 575.169 1705.25 962.619 1705.25C1163.01 1705.25 1344.09 1620.94 1472.19 1485.85H1413.28C1295.14 1596.14 1136.64 1663.73 962.619 1663.73Z" fill="#61D5D0"/>
<path d="M745.163 1448.48H1266.01L1213.66 1383.52L547.41 556.774H280.765L953.456 1415.57L745.163 1448.48Z" fill="url(#paint1_linear_5_26)"/>
<defs>
<linearGradient id="paint0_linear_5_26" x1="777.409" y1="560.879" x2="1660.05" y2="1491.35" gradientUnits="userSpaceOnUse">
<stop stop-color="#97DC8B"/>
<stop offset="1" stop-color="#3AD0FF"/>
</linearGradient>
<linearGradient id="paint1_linear_5_26" x1="299.133" y1="539.138" x2="1003.51" y2="1447.86" gradientUnits="userSpaceOnUse">
<stop stop-color="#FF4B4B"/>
<stop offset="1" stop-color="#FFE380"/>
</linearGradient>
</defs>
</svg>
